<?xml version="1.0" standalone="no"?>
<!DOCTYPE svg PUBLIC "-//W3C//DTD SVG 20010904//EN"
 "http://www.w3.org/TR/2001/REC-SVG-20010904/DTD/svg10.dtd">
<svg version="1.0" xmlns="http://www.w3.org/2000/svg"
 width="500.000000pt" height="500.000000pt" viewBox="0 0 500.000000 500.000000"
 preserveAspectRatio="xMidYMid meet">

<g transform="translate(0.000000,500.000000) scale(0.100000,-0.100000)"
fill="#000000" stroke="none">
<path d="M1595 4318 c-29 -27 -37 -44 -45 -91 -7 -42 -18 -68 -39 -93 -60 -67
-79 -129 -61 -196 10 -34 29 -60 93 -120 72 -70 78 -78 55 -78 -26 0 -26 -2
-33 -87 -4 -48 -5 -169 -3 -268 l6 -180 -29 -33 c-16 -18 -32 -44 -35 -58 -8
-30 19 -104 46 -129 16 -15 20 -31 20 -92 l0 -73 100 0 100 0 0 -46 c0 -45 -1
-46 -27 -40 -16 3 -75 8 -133 11 -85 5 -114 2 -155 -12 -88 -32 -113 -99 -79
-212 14 -48 14 -57 -2 -103 -32 -98 0 -181 82 -208 43 -15 140 -17 237 -7 76
9 77 9 77 -15 0 -19 -15 -31 -77 -63 -43 -22 -102 -64 -134 -95 -59 -58 -76
-96 -64 -149 7 -32 78 -104 113 -115 11 -4 34 -31 51 -60 35 -63 77 -96 120
-96 l31 0 0 -154 0 -154 -51 -46 c-27 -25 -85 -71 -127 -103 -114 -85 -153
-123 -173 -168 -32 -70 -20 -137 36 -202 23 -27 39 -59 46 -94 14 -67 34 -102
69 -123 46 -27 99 -21 160 19 38 24 70 36 111 41 73 8 128 39 157 89 22 39 23
45 17 190 -4 83 -7 161 -8 174 l-2 23 353 2 c307 1 352 -1 352 -14 0 -8 -7
-62 -15 -120 -26 -192 -13 -271 51 -317 33 -24 95 -43 140 -43 17 0 52 -14 80
-31 27 -18 67 -34 89 -36 77 -8 145 57 145 138 0 26 11 50 40 89 48 64 64 110
57 162 -8 58 -41 99 -152 191 -55 45 -144 121 -197 170 l-98 88 0 70 0 69 45
0 c39 0 52 6 89 40 24 22 49 54 56 70 7 16 22 32 34 36 35 11 87 51 107 81 27
40 24 100 -6 145 -14 20 -25 39 -25 42 0 4 42 6 94 6 l94 0 72 -77 c40 -43
113 -131 163 -196 50 -66 106 -129 126 -142 74 -49 158 -41 231 20 23 19 54
38 69 41 84 19 107 29 132 55 31 33 45 92 31 130 -6 14 -22 40 -37 57 -15 18
-29 50 -32 72 l-6 40 207 0 206 0 0 440 0 440 -145 0 -145 0 0 458 0 459 -367
6 c-203 4 -438 4 -523 1 l-155 -6 52 49 c102 93 109 176 24 293 -19 27 -33 60
-37 91 -8 62 -33 102 -77 122 -56 27 -103 19 -158 -27 -19 -16 -46 -25 -91
-30 -83 -9 -142 -38 -170 -84 -22 -36 -23 -44 -20 -222 l3 -185 -353 1 -353 1
3 34 c2 19 12 95 22 170 11 75 17 152 14 170 -17 88 -68 133 -172 153 -46 9
-88 25 -118 45 -68 44 -130 44 -179 -1z m220 -192 c36 -15 65 -59 65 -99 0
-41 -41 -91 -83 -101 -103 -26 -174 94 -103 173 37 41 69 48 121 27z m410
-436 c69 -40 79 -51 61 -76 -14 -19 -16 -18 -60 5 -80 44 -90 55 -75 79 8 12
16 22 18 22 2 0 27 -14 56 -30z m-235 -125 c56 -29 60 -49 60 -322 0 -277 -2
-287 -64 -317 -51 -25 -108 -10 -136 37 -18 29 -20 52 -20 279 0 136 4 258 10
272 11 30 65 66 98 66 13 0 36 -7 52 -15z m188 -274 c1 -189 6 -289 13 -298 6
-7 22 -13 34 -13 12 0 28 6 34 13 7 9 12 109 13 298 l3 284 30 0 30 0 0 -295
c0 -336 -1 -340 -76 -360 -34 -9 -46 -8 -77 7 -68 33 -72 51 -72 364 0 152 3
279 7 283 4 4 19 6 33 4 l25 -3 3 -284z m514 250 c28 -31 45 -89 34 -117 -4
-10 -15 -14 -33 -12 -25 3 -29 8 -34 46 -8 61 -40 79 -74 42 -14 -15 -17 -31
-13 -69 4 -40 17 -68 70 -148 76 -114 88 -145 88 -227 0 -79 -24 -120 -79
-137 -34 -10 -44 -9 -77 7 -47 23 -64 54 -64 117 0 45 1 47 29 47 26 0 29 -4
34 -40 6 -50 22 -70 53 -70 30 0 44 27 44 82 0 54 -22 101 -93 207 -61 91 -72
125 -65 202 8 75 50 113 118 104 22 -3 45 -15 62 -34z m248 24 c56 -29 60 -49
60 -322 0 -277 -2 -287 -64 -317 -51 -25 -108 -10 -136 37 -18 29 -20 52 -20
279 0 136 4 258 10 272 11 30 65 66 98 66 13 0 36 -7 52 -15z m297 -11 c43
-32 53 -61 53 -157 0 -79 -2 -90 -23 -111 l-23 -23 23 -21 c23 -20 23 -24 21
-174 l-3 -153 -25 0 -25 0 -3 140 c-3 157 -11 178 -66 173 l-31 -3 -5 -155 -5
-155 -25 0 -25 0 -3 320 c-1 176 0 326 3 334 8 21 128 10 162 -15z m303 -3 c0
-27 -3 -30 -37 -33 l-38 -3 -5 -300 -5 -300 -25 0 -25 0 -3 303 -2 302 -35 0
c-37 0 -52 17 -41 45 4 12 26 15 111 15 l105 0 0 -29z m95 -306 l0 -330 -25 0
-25 0 -3 320 c-1 176 0 326 3 333 3 7 15 12 27 10 l23 -3 0 -330z m252 309
c39 -29 55 -85 51 -173 -3 -64 -7 -76 -29 -95 l-25 -21 26 -22 c25 -21 25 -23
25 -175 l0 -153 -24 -3 c-13 -2 -28 2 -32 10 -5 7 -9 74 -9 148 0 150 -4 160
-57 160 l-32 0 -3 -157 -3 -158 -25 0 -25 0 -3 320 c-1 176 0 326 3 334 8 21
128 10 162 -15z m-1901 -745 c53 -30 60 -41 48 -73 -9 -22 -15 -21 -83 19 -61
36 -71 51 -49 73 17 17 24 16 84 -19z m1 -111 c6 -7 27 -148 47 -313 20 -165
39 -310 42 -323 4 -21 2 -23 -33 -20 l-38 3 -10 80 c-9 76 -11 80 -36 83 -26
3 -27 2 -34 -82 l-7 -86 -34 0 c-31 0 -34 3 -34 28 1 46 77 619 84 631 10 15
41 14 53 -1z m311 -295 l2 -302 58 -3 c54 -3 57 -4 60 -30 l3 -28 -89 0 c-73
0 -91 3 -96 16 -9 22 -8 639 1 648 4 4 19 6 33 4 l25 -3 3 -302z m230 -31 l2
-333 -32 3 -33 3 -3 319 c-2 336 -1 350 42 344 21 -3 21 -7 24 -336z m207 324
c43 -18 75 -69 75 -118 0 -37 -1 -38 -35 -38 -32 0 -35 2 -35 31 0 67 -44 92
-76 44 -28 -43 -13 -94 58 -203 82 -124 88 -139 88 -223 0 -110 -32 -149 -121
-149 -32 0 -47 7 -70 30 -27 27 -30 35 -27 87 3 57 3 58 33 58 29 0 30 -2 35
-50 5 -48 6 -50 38 -53 27 -3 34 1 42 23 23 61 6 119 -70 234 -74 111 -80 127
-80 204 0 71 16 102 64 123 39 17 40 17 81 0z m250 4 c24 -5 51 -21 68 -40 26
-29 27 -35 27 -130 0 -88 -3 -103 -21 -121 -18 -18 -19 -22 -5 -32 25 -20 36
-64 36 -145 -1 -143 -46 -196 -163 -190 l-62 3 -3 324 c-2 253 1 326 10 333
17 10 64 10 113 -2z m327 -12 c43 -22 48 -53 48 -328 l0 -262 -29 -29 c-24
-24 -38 -29 -76 -29 -109 0 -115 17 -115 332 0 234 2 255 20 285 29 47 95 61
152 31z m167 13 c8 -6 35 -89 62 -193 l47 -183 1 187 c1 179 2 187 21 193 48
15 50 4 50 -325 0 -170 -3 -315 -6 -324 -8 -21 -41 -20 -52 2 -5 9 -29 97 -53
196 l-44 179 -5 -194 -5 -194 -32 -3 -33 -3 0 329 c0 181 3 332 7 335 9 9 25
8 42 -2z m305 -13 c7 -13 31 -95 52 -182 l39 -159 5 173 c4 145 8 175 21 183
9 6 24 7 33 4 14 -6 16 -40 16 -337 l0 -330 -25 0 c-28 0 -28 -1 -92 255 l-38
150 -3 -203 -2 -203 -33 3 -32 3 -3 320 c-1 176 0 325 3 332 7 21 43 15 59 -9z
m436 7 c23 -28 4 -45 -49 -45 -82 0 -81 2 -81 -121 l0 -109 39 0 c40 0 56 -16
45 -45 -4 -10 -20 -15 -45 -15 l-39 0 0 -130 0 -130 59 0 c62 0 86 -14 75 -44
-5 -14 -21 -16 -103 -14 l-96 3 -3 319 c-2 227 1 323 9 332 17 20 172 19 189
-1z m-2105 -819 c41 -17 65 -60 65 -116 0 -38 -2 -40 -30 -40 -27 0 -30 3 -30
31 0 47 -16 69 -51 69 -22 0 -32 -6 -39 -26 -6 -14 -10 -121 -10 -239 0 -118
4 -225 10 -239 7 -20 17 -26 38 -26 39 0 52 17 52 67 0 41 1 43 30 43 29 0 30
-1 30 -50 0 -65 -21 -105 -61 -119 -45 -16 -69 -14 -106 9 -50 30 -55 64 -51
337 l3 242 29 30 c25 26 38 33 79 40 4 0 23 -5 42 -13z m295 -15 c14 -10 30
-33 37 -52 15 -44 17 -458 2 -512 -28 -101 -180 -101 -208 0 -6 21 -11 136
-11 263 0 254 6 280 70 313 39 19 71 16 110 -12z m368 -310 l2 -332 -27 3 -28
3 -5 220 c-3 121 -8 216 -11 210 -4 -5 -15 -38 -24 -73 -10 -34 -21 -65 -26
-68 -10 -6 -25 21 -34 66 -4 19 -13 46 -19 60 -9 20 -12 -21 -16 -195 l-5
-220 -27 -3 -28 -3 0 330 0 331 24 0 c22 0 28 -10 58 -101 18 -55 37 -101 42
-102 5 -1 24 43 43 97 31 95 46 119 68 113 6 -2 11 -126 13 -336z m-852 -277
c9 -34 -2 -54 -29 -54 -43 0 -62 43 -32 73 20 21 54 10 61 -19z m1154 -331
c65 -58 43 -159 -39 -184 -34 -10 -44 -9 -72 7 -18 11 -42 35 -53 53 -16 28
-17 38 -7 72 23 76 114 103 171 52z"/>
<path d="M1910 3500 c-19 -19 -20 -33 -20 -251 0 -140 4 -238 10 -250 11 -20
45 -25 70 -9 13 8 15 49 18 249 3 231 2 241 -17 260 -26 26 -36 26 -61 1z"/>
<path d="M2860 3500 c-19 -19 -20 -33 -20 -251 0 -140 4 -238 10 -250 11 -20
45 -25 70 -9 13 8 15 49 18 249 3 231 2 241 -17 260 -26 26 -36 26 -61 1z"/>
<path d="M3134 3497 c-3 -8 -3 -56 -2 -108 3 -94 3 -94 30 -97 47 -6 68 27 68
106 0 81 -17 112 -61 112 -16 0 -32 -6 -35 -13z"/>
<path d="M3780 3400 l0 -110 28 0 c47 0 62 27 62 109 0 91 -10 111 -55 111
l-35 0 0 -110z"/>
<path d="M1950 2399 c0 -37 -3 -81 -6 -98 -5 -26 -3 -31 12 -31 18 0 19 7 16
83 -5 103 -21 139 -22 46z"/>
<path d="M2930 2524 l0 -116 28 7 c48 11 57 29 57 111 0 68 -3 78 -24 95 -13
10 -32 19 -42 19 -18 0 -19 -9 -19 -116z"/>
<path d="M2930 2230 l0 -120 28 0 c49 0 62 26 62 119 0 101 -9 121 -55 121
l-35 0 0 -120z"/>
<path d="M3219 2623 c-18 -21 -26 -444 -10 -487 9 -23 16 -27 43 -24 l33 3 3
249 c2 175 -1 253 -9 262 -15 19 -44 18 -60 -3z"/>
<path d="M2312 1808 c-9 -9 -12 -79 -12 -253 0 -253 2 -265 45 -265 43 0 45
12 45 265 0 253 -2 265 -45 265 -12 0 -26 -5 -33 -12z"/>
<path d="M846 3404 c-17 -9 -47 -29 -68 -44 -21 -16 -59 -31 -85 -35 -93 -14
-136 -56 -137 -135 -1 -36 6 -55 33 -92 26 -37 35 -60 41 -115 8 -80 18 -101
60 -137 53 -44 89 -48 338 -35 204 11 408 8 502 -7 l35 -5 -55 47 c-121 105
-252 246 -347 375 -122 165 -154 192 -231 196 -39 2 -66 -2 -86 -13z"/>
<path d="M718 2140 c-75 -22 -115 -76 -128 -173 -6 -42 -18 -73 -40 -104 -37
-51 -47 -98 -30 -147 14 -44 50 -74 99 -81 71 -12 79 -15 126 -54 59 -49 120
-66 177 -51 46 13 99 62 275 260 112 126 238 252 303 303 l35 27 -90 -7 c-155
-14 -370 -7 -520 16 -151 23 -166 23 -207 11z m188 -214 c71 -71 29 -176 -71
-176 -100 0 -142 105 -71 176 26 26 42 34 71 34 29 0 45 -8 71 -34z"/>
</g>
</svg>
